<mxfile host="65bd71144e">
    <diagram id="EQdrZne8i3haUnsz75z7" name="Page-1">
        <mxGraphModel dx="798" dy="606" grid="1" gridSize="10" guides="1" tooltips="1" connect="1" arrows="1" fold="1" page="1" pageScale="1" pageWidth="827" pageHeight="1169" math="0" shadow="0">
            <root>
                <mxCell id="0"/>
                <mxCell id="1" parent="0"/>
                <mxCell id="2" value="" style="shape=image;verticalLabelPosition=bottom;labelBackgroundColor=#ffffff;verticalAlign=top;aspect=fixed;imageAspect=0;image=data:image/png,iVBORw0KGgoAAAANSUhEUgAAAVoAAAERCAYAAAA6zm/ZAAAgAElEQVR4Ae2dTY8UR5rH57vUoVYruuXp9mxv2fLSLa1peqFlyiyDkBaPu4XUeIE5rECDYdpc1gevDFq1WttotGppBYwlc2jBWMMBECMscUbIFx+QkJDPfIRn9URkZMZrZtZLZEVW/Q+t7MqMjJcn/vGLp56MyvhVpztP+IMNoAFoABqIp4FfwbjxjAvbwrbQADTAGgBo4dHjGw00AA1E1gBAG9nA8Gjg0UAD0ABAC9DCm4EGoIHIGgBoIxsY3gy8GWgAGkgPtAt9WuufocVD6BwM0Hnq7V6i2z9+SbfvHXG8rrJrw9vuCF3j8rK/b3Y/cMqVeX9AW4+KdL76DV+H8Wg/t49oywadGNqpUDa5RFufj6duwjZfbeR2vv1jdd55ezxamLStq8pPBrTd3hla62/S2tFVWlwGaKs6bmauq8EYGlyff0rfhK4NDRYJEx7YYdBqwOE6RqrDePqZQTkKaGVbT9yrhuFw9eVJq0beVVoYsb+Hq7umg5LykwGt3sg5gDbgRdXrVN2Wrf+fQfrjl2HgAbQ1tDIloK3SQgnoJj0OANqanbN99jW9uFr8fbcyT533v6cn2rkXF76ns5yfff7qa3ryyUV3QGjp5PVb9J3K7+wtN32wrh/T84tX6M3FL+hg7TN6I/7/jPa6H9DBBp+/Qm9Ofezkd3Xtiyxtdu/Cx/R84wRdNcrR8lD5LJygn/IyIsM/G1zXvgqUo0CrvB3xNdnvHeVfPVVo4NGn1DPaapYxPo/WCjPU+JpcDgYrP/amMzvd9nqu1aC1bePz5JVHa6Z1PWXzOodX/P1RtLGmR1ulhZK+LMoy+7ip8wDtIJ3DYFQw1e5jCHtBaqV5EYDn2U9e0ZOzj+nJ1Ve0974UAp8TMNfyqBLF3ikGJgN2njofSeD+tMYxRgnL5x8VIhOQNeCbwdoAbeC+jS/oJ+PeIt+yOr6395x++9eyvz/Te057GRIlA1UBRocmQ1f/3M1ivfbXewFnFxSqDeMBLdf/SzInCt+5ejbkvuTYsJ6fANujSyUhlHLQnrjnxsD95y7RtXuXzDCJsH/YhtKWVe2tCdou51OiBUc7dW0aPx1AO1DnXKS9C68tALIX+pi2K/O5Rd95IM1CZKi+qJVHuSD2Tn1BBwtZGvY6NWgyWG3QSgiX5PnRZ+RL40K6JI9Ku4x4Lw90C6psU+V95QPdk0Zc+/xTuhZ44DUO0HIeOhRlfbjNR+haqE5lNvtqwxtGEbC1J5I8nxLQsv0C95k2ZJu6QBbt4QkrkEfe3kC95fW6oB1RK7k9ms8HoB3Q+AKKmmdqf5bCkUDWQw3i/xLQVnnEuWBL6jsIaDk/6QFnoYWLVxyoGvnp5TLEh/Bo67Rh4DQBUBiQEF6XtkJAhQ7UMQCJ0UHLAAl7e0YddfuW/B+8J2AHac8waMMTwTx1LDgGy7YnjYC9feEIWT+A1onrDTwQSkQTyivth2G6B+vzcOU5F5zlHq2bfvBZ1wBjhUfrs70ArwZQIz+9H4cE7XChgwo7BABjQIHTDOE9ArSm92zYVNeDDloBWc/Xewvapv4AWoDWEJQc9HlMduUx5Q/AVDqO42oebyGo9EHb6XKcNovxcnvaEjrweKQmFIYbyKODVsaGpyl04PVKtdBB0EMGaCs8BgWQBo9pe7TZqoIL39Oe9yGY7vFmtmUg82qCZEIHDFQtnqv6lh+gaR6tfIhmpeM0Qz4MKyadMWqujkfL7ROelvs1nsEQii+OA7QiFutZCcDxTj+Aq2zjmTTEw7/RHoY5ddHgqfqNJ69vHllL7Wy7eu+TYRsvpIX2PG1SmpySYzIx2vwHC/yjBeMvxR8vqBhs4CGYtmyrAKxaulXcIx+CFUvGiphukUaJvPyolnfJeKt4gMVf77UlWGopl3y4ZaaXy8Gu0Bvt4VlRnpWW0wwZOijyrIJJvesCkirOmsNMPuFWv+wyACKgYMVqLW9YPPDJ8wynNcu20tlhCk+5YejUabvZRrHCgsvQ2+IpU9nEXW7FoCtrgypPhgRMGwUmL82Goq0MYD6X11HlaZWb3Wf02xTANhnQjnsQIr86A3bINImAFn2s9Z8N2imA0zT1L0ALQQ4ch+eHZvpSsWkaEG1tC3uZ0+YFtrUvfPUGaAHaStBWLQPzCQvnNG8zgsbMr+9W3DRCeejP0foToIUoK0GLQTbaIIP9YD+AFqAFaKEBaCCyBgDayAaGNwNvBhqABgBagBbeDDQADUTWAEAb2cDwZuDNQAPQAEAL0MKbgQaggcgaAGgjGxjeDLwZaAAaAGgBWngz0AA0EFkDAG1kA8ObgTcDDUADAO2sg1a8WWzQl9hg4ACe0MAgGkgLtAt9481dPbUtS4owVK8+VJspavt9DdIBE0/bAtAu7byjjQPt785TmmtSE+f36f69b+mIVea53Wd08/xgwOF77j98QNePD3bfxHVitR31Gaz/0gGtgGxfG0CHqdffpCRhK16DmKoXGH7BeBsHx9z2W9rYuTvBGOJJun4vANTj39K+B8BBOw+aHnCbYL8PBtJgn2d9mAxovS/7PrRKK0dXqZua4IK7KIy3c6o6z399+kC7vjVBuwa8WWX7gbxaBu3u5amBh7IBjtX6TAa03s5KDbT2C73zsEGx3Xj+Mm9tO5v8nB5eUKEHseuCeim4fAl4aJtx3kKneDk4l3mL9i4oz1q9jNxMI9MX25grOxd14vQqD79gzLRFW2Vequ6yDKOOmg1UuXWPwpPVwwX5/29p5ZhVz62XZmgh6AHfpfU8Hw5FvKSlikmcQbp/42QYjhUgNtoL0IbtWNEPhh1bmDZp0M4tJxw6KINIwOPdPmsDj73PV/REB3AgLJHvU6aJTELNhuSgHq1n6x27DKutolzn3Ct6ckGHsG/jSguQWjmhgcTALfNoBZCtmK3vXOfYUzp9YEHad86o02W6WRVPZXhWpVF5ArQAbUjokzrPW9us9JbS7JgASHNbBa57QatDNhuQ7EEaXu3KY6q/S+4YQRtoB7fTbotvIuiU3J/bSkEocCwH7V1atyCr8rXvW9qxIKvKY9iGPGAB0X06p9J6jwzjQAzXTs/eL0IHaY5pu6/G/DlJj1bsH7Z8ON0OqQJI4LoNp07XD0UbtPZnBRP/0Z+nPy17mGGPtrRcC/5u27JNLC3PN1wPv7drA9O4f+slnd7+2q8TA6BhIHe6X9PKnUAIYYyglasNqqDtt4HR5jEDAHk3Y/PkQMvhgrWUIctCD4A0F23gugsjPxRtwNmf83K8g86fZ/gegHZ00NZcrgWP1j8penXcDADD42K85ScFWoZssuECXQwBkOad5r3OMUtfjPZ7Oqvn3Z0nB6z84Ky2Zzg+0JZNKPakYX8WtvDaYTABl3q03bCnat83VOigWzdGW9NTRYwWoM0hYQ36Zs4v0eJRH2QPU6+Vy7vYS9Shyp/56b5+joHjh6ID2q58sOTEaRlkV1+b8VyR1iyH8wuvLAh7tNz3HHs14sWsDw/4JwPaeWKgOuEDDhvYsVvfORE2CMRus3GAVQeDTYzN8KJ9dUrEo5U/Tljrbxq/DBOfUwKtWpKlLetSy628MMrTSfDJVQIZuIy8FBjNJVo2WNX9qswgPDMA5+nEEjJNnPb1vJ6+ycCsk8jTyE9NInJZmaqzhLs898JIr9WjZFJ3fg2WL8ty46luWjeNAIC9DOzgXemKBnFPxfItrKOt15+zDuBEQIvOmnUhptt+/DIs3b5pDzcA2hKvCgJrj5Cj9lXAqx3Im9VCEXjXwezpCqAFaGf2AUVUOENX0JWmAYBWMwYG3ux5Guhz9HkTGgBoAVp4HtAANBBZAwBtZAM3MVuiDHhl0EDaGgBoAVp4M9AANBBZAwBtZAPD00jb00D/oH+a0ABAWxO0Hy4fpb87tIiZv6a9mhAvygAk26IBgLYmOABaDOq2DGrUMz2tArQALbz0mhoAwNIDWFv6BKCtOcjg0WKQtWVQo57paRWgBWjh0dbUAACWHsDa0idpgZY3Y9Te4JXSu2nh0ZYPsms7v6df/nY9+9ukPzUGL3PDReeViY3VY546tXZkKLfjWMHB9RlkO/QmbTVjZSUDWrF9Tb9Pc3kHyHfU9hYaFGZetlsmQOvaxA+FVXrxtyZBW9TL+27akj7117/Ib9Drle+ubbAuqu7DvPhG3Yvj8FqwbZcMaO2Kic8JbTcO0NYV3YyCNjVvVkEdXm0SoTGAVgmy4hgTtH+6o75yy+PPO6v0lx9sr/BD+ssPerrf019+p8Hvj5vya/sPJ+lal2FXpH3xRy2d1k7z6z7nt0ovxP1mejPddfp558MS8VaB1m5HVX5mXbwTctamao/WDDNsHNR5QbjcgUG9XDwUmjhy44G5w+1Hn9Gbi1fozcYJOjh1Rf5/6mPqLJygn/j8xSv0/CO7bR/QwUaWNrv36kef0U9rH1j2ttIZ+X5Ge1ofd7ol79M10s2TaMPDZ3Qf4QbL3nY/Df45YdDORuiAIWuDS4JXB60EpwnMwLkffk8//02D8O9O0s+er/ICnndWNUFlcLZAK+pipJsn37kCgGWglZA121GVX31Rl4KWt7I5sLat8Z3jXRiMbXAYzm/p9B3rXgNSIZh9TM8ZmAzC7jztCeB+QQccDhPA1aEo4WnAN4O1CVo33dW1L+jNxhf0U1ZO0RfSdhw+qLPNOUBbX2u2jas+pwda7YHY1D8M++OmA1lfhzEUbTjJdLYHypDTIJvBwHc/n7MB75TNkLYgq9L86Y5bTl4nD9jFtZL2XtvZND10A2T1BkAZaOttzhjaelzCduVYqB6hTRw/pucbJ+hq1hYGYgFNBqYN2gzCZW33erjzJGAbAK0AKLxUzakI9WO88+mBNhdZaMPGeMZQEPEdY4QOfAB0y2YvUPduzfabwLPBK9OGypGecxFisMEbuq8cmmGPlvMrViYU5apz/snEbK9rn+J6GLTh3XI7YoPGLITAHu7OXe+ADIJa6HUcoOV2ZB5wFlp4c9EF794p95ywCXvIAK2378o009S1hEHLwmPY6isRikHVlIFUOdMIWtU2dbRDAjFAa8NclT2OY/tBa+tbglcPJwwN2t3LyUJoHH2feh4tAO0ZWjxkC7D5zzFA2+EHWIGv5rpwwsCzPVj7s7RT+H7bjpY3Ou7QAednxYD1do76fxi08xT0SA0vdtjQQUmMtnbowO6L7DPHaXVPdYjQQb1lZ7IN9x8+o5vnA3XJv23i+qBaTQS0/jDB3PImrS0fTmImjgLarnw45Hh54gHWdS0uawEwEzx7oObX7bqg9cdyfeB3y5gnX7pCeP66qusifOBMLv6HZHyPeJBT80l4GWg7DFTjIRfDgsFqPeTih2FG+ECmKX8Ylj2xd7zGAWK0DFQNyspe/ABN92g7XY7tWuEDcW/oYVhoErBgyRtQPnxG+zdOJjHeVPun5ZgIaGWnC7BqvwxLBbLc2XFAK9ttx0p/8T1MyuCr4pl8NACtlneJZV3qQZUEmLqnSM8wdGOkv3i9TTMPkZedzlM3VeYvgYdzxXVZD3PCKCBQBVq17Grj4B05fwYw56nDELXSrW8VZalBzcDW03GaoEesvDx7HW22YkAs8cpireKBVb4KQa4eyOOwRvpiiVfx8EyvpxXLZUCHYrQ119EKO+OBWbRJJinQKqGneIwJ2hTbizrpYKsB2sz7nphHGAAtA7Q6FBB6mGfaAJoY3h4ArfJIKo4A7fAia/0A9YYdPPawvdoKTY3TLm6IIXv3ArzUaF7qIP0H0NYcDACtByw1bTeIIJNIy2A1QgyBX5BNsP3yxw9VIYYZ6rMJ9kUdzQK0NTsIoMWgrTOgkAY68WkAoAVok/hq5RMnzgFa06IBgBagBWhramBaBj3a0fwEBtDWHGQIHTQvTgABNp8WDQC0AC082poamJZBj3Y0P4EBtBhkAC00AA1E1gBAG9nA8B6a9x5gc9g8NQ0AtAAtvBloABqIrAGANrKBU5tZUR94e9BA8xoAaAFaeDPQADQQWQNpgjbbzialrWwKL4BfwFFvD6binuZnUJQNm0MD6WggSdDy6xJXjp6hNEErO+/c7gO6fjydjsSgQl9AA+lqID3QCm+2T3ML/cRBW+f1c+l2PAYl+gYaaE4DiYFW22IcoEXcLHLcDKBpDjSzbuu0QLvQp7Wjq9TlAQbQArQALTQwJRpICLSHqdfXNmJMHLRHbjyo8eZ6eAyz7smg/RgDrIFkQNvtnTE3YkwctJ1utmuosyEfhAW4QAPQgKmBZEDrbMyoNmlMZBdcWzjwaE0h2fbBZ9gHGig0kAxonU5J3KOtt+ldYWinfVMSe0K70MfQQLUGANohgQfQVosLAxA2ggakBtIDbfarsLXEQwcALSACiEADdTWQHmiH9DDrNng86fhBGH4ZNh5bYrDCjtOvAYB2YLDjXQcAw/SDAX083j4GaAcG7Xg7AIKGPaGB6dcAQAvQ4tdH0AA0EFkDAG1kA8NbmX5vBX2MPq7SAEAL0MKbgQaggcgaAGgjG7hqpsN1eEPQwPRrAKAFaOHNQAPQQGQNALSRDQxvZfq9FfQx+rhKAwAtQAtvBhqABiJrAKCNbOCqmQ7X4Q1BA9OvAYAWoIU3Aw1AA5E1ANBGNjC8len3VtDH6OMqDSQEWt7KZpPyt3Zl/6e85XiVcXEdAxAagAZYA2mBVm3MCC8TX+WgAWhgijQA0E5RZ8J7gvcEDaSpAYAWoIXnBA1AA5E1kBZo7RgtQgkYAJEHADzAND3AaeuXhEDr6fCFPq0BtoAtYAsNtFwDaYO2O09zy2do8ZAHwi03/LTN2GgPNAoNhDUA0ALY8JagAWggsgYSB+0SLR7t01xkI2AmDs/EsA1sAw2MroFEQMtA3ST7xwlzy5u0tnwYsy0mGmgAGmi1BhIBrZwxBFi1lQc2eDGzjj6zwoawITTQvAaSAi0E0LwAYHPYHBqIrwGAFl/JWv2VDJCIDwnYeHQbA7QALUALDUADkTUA0EY2MLyB0b0B2BA2bLsGAFqAFt4MNAANRNYAQBvZwG2fiVF/eJPQwOgaAGgBWngz0AA0EFkDAG1kA8MbGN0bgA1hw7ZrAKAFaOHNQAPQQGQNALSRDdz2mRj1hzcJDYyuAYAWoIU3Aw1AA5E1ANBGNjC8gdG9AdgQNmy7BgDaWQftymN6cfUxbc+6HdB+eLURNZAmaA+t0or2Fq/eQoIzugDUa3pxVf29or33E6xnlXiSA+1dWj94RxsHb2nlWCL2PL9P9+99S0csW57bfUY3zw9WR77n/sMHdP34YPe13aOb9fonB1r5qsTEX/b9/vf0JFkv8BZ9d+F7OmtBoW1CX9pJBbQn6fq9AFCPf0v7HgAHbT1o+pb3YdAOM9iutEC70Hde/p1kZzFoz95K9KsWQDtWzQS8WVXGQF4tg3b3cqK6gYet+jTGMSHQLtHi8ip1U57thCerQgXm8cknF8UAOvvJKxlO0ECcn7uqhRdU6EF4n7fouzwE8Zq+W/GLfvusXeYt2rug4qsXae+Ceb0srFHUie9RefjLNdO+JtVWKUhVd9k2o46aDQYVr/Jo57bf0oYIJXA44SUtWfowr5eEHLZe5vmsb81T59hTOp3le3r76yD8GKT7N04Gr3cqQGy0G6AN29HqV8NuU3AtHdByXJa3rTHis4mGEKo82sD17bMaaIV42Pt8RU90AAuYu+BjgJmAmycJNTvtoB4tg9LOowCuKMMCpv/cK3pyQa+jBH9o0qgaSAza9Z23tLFztxicAo4ubM28ZIxXwNQzQJd23tH6DkO3yEdB3cyHbXCZblbFUxmeVWlUPQDaoi+VTWbkmBho+9Tra9uLC+gmCNsASPOBGrjuBa0O2Ux07EEagFp57EA2L8sR6hhBG2gHl223xTcRdEruD9dfQp6BaEBWtZM9Ux2+6rx+3HpJIS9V5Hvnab0NPwVE9+mcnrfzP8M4EMO107L3i9DBTMI2HdAu9Gmtv0nOCoNDq7SY2qqDKoAErttw6nT9ULRBa38uh5Q/z/A9YY+2tFwL/m7b5mk00IYeht2ldR2UWgigCDG8KwVtyNt1bDRG0MrVBlXQLr5JOHWxoY3PrQJ2OqANea8pPiALgDQfHIHrLoz8ULQBZ3/Oy/EONn+e4XtaDFoBWQ+QKzza8YO25nIteLStgmN4zAw+IaYD2q7cctzxaBf6rpfrBczgjR/akAGQ5vl5r3PM0hejdZdiOWDlB2dWnDQvy7HF+EBb5pHak4b9WdTPa4d6/cRf8b1f/7XQAT8I80JzXKCtHaOt6akiRgvQhgduvYExlvttr9b+7EClwbrpZVcChL1EHar8mZ/u6+e47n4oOqDtygdL9sMwAcKr9ioFF+icX3hlQdij5T7l2KsRL2Y7eMA/ftC+pdN3LNjaD8M06Cr9iRjsgXWf1nd83QtnLY3Ki49YdTChMRboD71v2vR/Qh5t1qFZrJbjtWv6g7EUDK+WZGlLsdQSKi+M8nQSsOJpvQKjkZcCsASqytMGq7pfXQ/CkyeCvOzX9ML+AYN9XU/rTAZmnUTZRn5qEpFLy1SdJdyz5WZG+qqBa/4yTIFTxl+LlQJqkNnLu4QXrJZyaQ/NzHx4GVj2p8d7fRqrWL6FdbRV/YnrrNX0QOsTO87N7FcuBdTJHfHLsMnZfnogDdAC4oB4lQYCXu1A3mxWhlx9UPPhWVW9cL012gVoIdbWiBWe1fR4eLPWlwAtQAvQQgPQQGQNALSRDTxrMzfaC68TGnA1ANACtPBmoAFoILIGANrIBsbs7s7usAlsMmsaAGgBWngz0AA0EFkDAG1kA8/azI32wluFBlwNALQALbwZaAAaiKwBgDaygTG7u7M7bAKbzJoGAFqAFt4MNAANRNYAQBvZwLM2c6O98FahAVcDiYBWvotWvrGL39ql/fE+YoDh1Nmgt3uJbv/4Jd2+d8Rq2we09ehLce3aV65gh9fCEbrG5WV/3+x+YJWryqqbTqUf/Ri2xeh5D2KvE/ekfcK2abY+g9Q99bQJgdazNxi/jxagDQCh5aL/aiMAWtkuhs94QVvYi/OuA5O66cYyyD//lL5xJp2izmMpo8JhUcCvY5sm6jNNZSQCWr+gur0z6e2uUCHWaRJH1LYwWH78Mgg8gNY/JqL2STb5xZrgotY98XGZMGg5nODxcidkUPul2+JF3/YLtNULru3zV/VtuLUBpKWTL8zWXqJde+uaefrN3G/of06cof89+W/0H/98jP7v1Fnx+aNf/yP91/q/is9fHT3heMb/vrImrnF6vvdUb4U43aG//3Welv9XeXA6vn7k/Q9Fei6Tyx5qAGWgDQ1qBVr1dVZ85X/0KfU8/a88MRUWuB1Ip+rJ6et4bdXpijCHLPsSbX2u9a+nrqoOzjH3aKtCF+Z1Ua7XE9bqltmjsOUGnfDVTYB2hDb48sQ5MT7SBW2KYQMGo4KpJiCGsNpZwBlAWToB6gA8eTeCJ2cf0xNtdwN3O5vqAcwQVPBjaDIYGaYKlnxO1Y/P6/BVsGaoKtCG7tvrn6E/HFnP83pv7zn99q9lf3+m9zR7yTowMMKDWsFTByKDQv/M+Yh0NmgEMAIwye6x81F20Y/loJXAMycK37nqfhNlCtBuODbxtVmvI/8vbBCaXDjfRxt07ZFmuxzqVt34/I9hu9nl4rNlP0fjxfVkQcthg5XeUj6Y0+hUua2LuW1N+Z5bRb39+4Px9fI9vYrOKvLyn2P4sbfJ6fj4n//yaQ5NBqsNWj5Xlien96WxIV2Wx7DX/JA7QtcMoNifNbt8/ildCzzw8uet3ZsNmLJ0fM2ErLq/pE4lA7EjIOebeNgz9Z1X5fGR0wQAKfL9MlBXPQ/8P6xW69yXKGg5bHCGFg+l1/kCippnan+WRvfss8X7cnm8YU7PeVR5xHU6cxDQcn7s0bLXq/5sqOr56eUzxHWPVr82rv/9ILMglkEkDxloqwrCX6mlBziaR1sCtu48nbhXBUaPrrkttmeuAV+HehECKFZR3A55opyvMTl5yi6bAHCt1Bmpq/dEQXuYekdXqZtkJ+serM/DledccJZ7tG76wQeEDsYqj9YnEAavHk7Q89PT26AdLnRQ3r7aoB0CImWeqt7OcLrJgVZA1gFySX0A2rGAUtfFMP+nCdqFfoJhgwIMeUyWd7K1vVSO42oeb9Ep6YOW47Qco1UPuCYdOtC9OGlHy6MVX5kH9x7DAC36mMsrS8fX3Prx/XYdzTwLPVjnhXfu+/rPEFVtDOUN0AbtmoizliRo55bTDBvknZk9FNvzPgTTPd5sMKmtxW0oZyJoOnTAIP3vT36bx3NVuxisukfLD8M4zsserJ7Gfhimro3z6AeZBzQBQPH97o8hZH+UAVRvQ3k6fvDlgpE9Tj+ALbDaABCe5yXnYZT5MEyHbpafaD+HENy6iLaIfP2rNfS24v+K/rH7a8DPCYI25bCB6gwVg31M2z6Da8u2XuSxWbV0q7hHxHf5uvNXpKkzANSKAT3WynDkJVtqFQLHX9UqBDu9uk9fcaDKtdNymvV/+KeIMVqGiRZ7VF+T1Q8cRBzWgkoOG899Wf/445pZelWGiK9qeVTFfD3l1on9Ktuqo5gUuCyuh5Wnm59c2VDEpdkWymbK85138inSDzkR+HSOc7kDovoydEwQtApmOIY6bdLn7RjtpOuD8jFWUtcAQItZufasrMTM4QV9qZg6jyOABw34NQDQArSVoGWwqvCCCj9gQPkHFOwCu/g0ANACtJWg9QkH5wAUaKC+BgBagBaghQaggcgaAGgjGxizfv1ZH7aCraZVAwAtQAtvBhqABiJrAKCNbOBpnaHRLnif0EB9DQC0AC28GWgAGoisAYA2soEx69ef9WEr2GpaNQDQArTwZqABaCCyBgDayAae1hka7YL3CQ3U1wBAC9DCm4EGoIHIGkgLtLxPWH+T1rK/3kL9GaPx2XXrJW0cvNP+3tLKsT5t5XoAAAnRSURBVAbre/xb2n+4T+csgRy58YD2b5zEwLHs0rg+UD40qGkgIdAepl5f3/U23e1sOsee0umDl7SkGbLpgXxu91kAqJfppgfATdcP5TU46U5Qh+jnev2cDGh5M0bHg01xJ1wWNYN25+7kZuyAN6tED6+2nviVvXCEvWJrAKAdxBsQnqweLij+P739tQXeu7RuhBZCHvDXtHKnyGfjoDoEwSC9v3vZKk8bLBUgji0q5K/1xSD6Qtqwpltum2RA2+m6Oyt0e/0kd8Kt9GgFkC1g+s51JYzXt/SB6TunXz9J1+89o5vn9XP2/xw+qEpj34PPmCCggVgaSAi089RZ6OcPwsQDseXDac5wFaGDpR0Lsmo2tu6b235LJmSV0O/S+p2nNKfuM44M0Qd0/bhK6ztKGOOhmM82OBcLJsg3rK10QMvxWGuLcW/c1oBOuGFRO90CpllWGSQ5TKBCCPr/bjuCsO4CtKa9XdvhOmySmgaSAa0Xqq18GJYOaMvDCxiMqQ1G1Gd6NZkQaH3x2MPUSzF8UOrRzlPQG7XuGy50UDdGWxVemF5RA1jo29Q0kAxoOx7v1evlJh86yJZ/OTFWDhXYsVt+8KVCCcXgWNp5F4jdyjRYdVDYKrUBhfqgb3waSAe03XlisKpfhSX5MMz5NVixLMt5qOVJ66ThSYO9XGMZ2Dtyl4pZ4q1YvoV1tJa9UpicUYc0H2w31C9JgdY3E+CcHxr4ZZjfLtAL7JKiBgDahma0sXd+wKuFNwvQjF1rbR0jCdUboE2oMzBAAEloYDo1ANACtDMdOwPYphNsqfUrQAvQArTQADQQWQMAbWQDpzazoj7w4KCB5jUA0AK08GagAWggsgYA2sgGhvfQvPcAm8PmqWkAoAVo4c1AA9BAZA0AtJENnNrMivrA24MGmtcAQAvQwpuBBqCByBoAaCMbGN5D894DbA6bp6YBgBaghTcDDUADkTWQGGh5y/HN/A1eK70lCCCyAFKb+VEfeKPTqIGEQLtEi0c3SYfr3PKmuwU5wIPJBxqABlqmgXRA63nxd6e7RIvLq9RtmVGncUZGm+BpQgPDayAd0C70DW9Wderc8pk0txwH/OFVQQPQQE0NpANar0c7TwgfDD+LqskKR9gQGpisBtIBLYcJjBht8WCstzBZI0GksD80AA2MooGEQMsdKWGr9g1jwCa7QWPNrwyjdA7uxeCGBqZDA4mB1jUqYrSuTTD4YBNooF0aSBu0gbgtRNYukaG/0F+zroF0QcuQ7fdpDl/R8WQXGoAGWq6BdEArwFr8KmwNkMXgavngmnUvDu0vvsmkA1oMKoAVGoAGplQDAO2Udiy8icKbgC1gi0lrAKAFaOFFQQPQQGQNALSRDTzpmRTlw5uDBiavAYAWoIU3Aw1AA5E1ANBGNjC8icl7E+gD9MGkNQDQArTwZqABaCCyBgDayAae9EyK8uHNQQOT1wBAC9DCm4EGoIHIGgBoIxsY3sTkvQn0Afpg0hoAaAFaeDPQADQQWQMAbWQDT3omRfnw5qCByWsAoAVo4c1AA9BAZA00B9qFPq31qzZadHdYSG82vkw3Hz6j+7uXIc7I4kyv7yfvGcEm7eyD6KDlrWjE1jRHV2mxYkdbcyNGhm4VmCdn9HO7D+j68cmVjwEH20MD7dFAdNDqYijdlubQKvV6S5aXeJh6y4etc2kY99zuM7p5Po266DbG/+gTaCA9DSQDWv8mjOzVprnLAkCbnpgBGPRJqhoAaIeMMwK0GNSpDmrUKz1tArRDgvbIjQcIHQxpO4AgPRCgT+L2CUA7NCxO0vV7WH2AARp3gMK+02FfgHZI0MKjnY4BAJChH5vQQDKg7fhWHfDOuFh1kOSqiybEiTIAwWnRQDqg7c6TvfzL/pyS0fEwDBBISY+oS9p6jA7a/AcL/U35w4X86PsxwmHq5dc3acVZV5uOMQHadPoCkEFfpK6B6KBN3QDD1Y8fhOGXYcPZDlCA3WZPAwDtwA/D8K4DgGL2QIE+H63PAdqBQTuawSFY2A8amD0NALQALVY1QAPQQGQNALSRDQzvZfa8F/Q5+tzWAEAL0MKbgQaggcgaAGgjG9ie2fAZ3g40MHsaAGgBWngz0AA0EFkDAG1kA8N7mT3vBX2OPrc1ANACtPBmoAFoILIGANrIBrZnNnyGtwMNzJ4GAFqAFt4MNAANRNYAQBvZwPBeZs97QZ+jz20NNAfahT6t9X1v7LI6pW66hgG5tPOONg7e0entr9OY/Y9/S/sP9+mcZQd+Ifn+jZNp1NGqmy0+fLa0D3tNrW6jgzZ/TeLRVVpcDoO2brqJDs6tl8mAll/T6Acqv/TGBfBE7QaATC1AoKt6k2V00OodUfdF3nXT6Xk38n8qoA14s8oG8GrriV/ZC0fYK7YGANpBvC0F2mNP6fSBDCVwOGF9yxKqdT0YctDSyZDEXVpX+e7cDXpBDNL7u5eD1zsVII4tKuRv6WEQjSFtWNcttg1AO0jnMWh3XtLpg5e0lN/3Na3c8cA2vy4HnYjxBuA5t/02y/ctrRyT6fmcA3CRp9x99+b5ssEs35lbnqbsflzDZAENjFMDAK0FxFLjbr2kDQOySozsierwVef1411av/OU5jzlMVT9+er3q/8ZolW7O0gY+2O4Kh8cS/va009ID80MqwGAdpABpUIHnnuWdgpvtNOVXi6HDIy/EtDWX80A0A4rdtwHUE5KAwCtB5rBzqgFWglZF5zlHq2bPjQo6oMWoYOQDXE+qPFBxgPS1o4nA7SDiIVDB16vVAsd8AMubyx2XKCtG6OtCi8ANoANNNCUBgDaAUF7+s5bC7b2wzANuipvEdt9Z91XiFw8DBvghxBYdVDYrqmBgnJg81E0EB20+Q8R+pu0ZvyZP16om26Uxo5yr/HLMAXOLAbrrA7Qlm2JGK3wgtXSreKhmXwIZsVxRZ5FGm+dK5ZvYR0toODVjZr4caz9lX9cdowO2nFVFPmY8MAvw0x7QB+wR8oaAGjbOrsHvFp4swBOysCZ1boBtG0FLerd+Ne/WYUE2j365A3QAlgAFjQADUTWAEAb2cDwBkb3BmBD2LDtGgBoAVp4M9AANBBZAwBtZAO3fSZG/eFNQgOjawCgBWjhzUAD0EBkDQC0kQ0Mb2B0bwA2hA3brgGAFqCFNwMNQAORNQDQRjZw22di1B/eJDQwugYAWoAW3gw0AA1E1gBAG9nA8AZG9wZgQ9iw7RpoDrQLfVrrm2/scown0hRv+eotQGCOjTAxwPuCBlqngeigzV9/eHSVFpdLQCsg29f21DpMvf4mAbaYbDDZQANt10B00OoGmisBrffaoVVaObpKXczgrZvB9X7H/wDlrGvg/wEJfRv7y56v9AAAAABJRU5ErkJggg==;" vertex="1" parent="1">
                    <mxGeometry x="60" y="70" width="346" height="273" as="geometry"/>
                </mxCell>
                <mxCell id="3" value="" style="whiteSpace=wrap;html=1;" vertex="1" parent="1">
                    <mxGeometry x="460" y="80" width="260" height="380" as="geometry"/>
                </mxCell>
                <mxCell id="4" value="ECS" style="text;html=1;align=center;verticalAlign=middle;resizable=0;points=[];autosize=1;strokeColor=none;" vertex="1" parent="1">
                    <mxGeometry x="460" y="60" width="40" height="20" as="geometry"/>
                </mxCell>
                <mxCell id="5" value="msg:undefined&lt;br&gt;foo:0xa00&lt;br&gt;bar：0xb00" style="whiteSpace=wrap;html=1;" vertex="1" parent="1">
                    <mxGeometry x="1020" y="160" width="120" height="60" as="geometry"/>
                </mxCell>
                <mxCell id="6" value="GO" style="text;html=1;align=center;verticalAlign=middle;resizable=0;points=[];autosize=1;strokeColor=none;" vertex="1" parent="1">
                    <mxGeometry x="1020" y="140" width="30" height="20" as="geometry"/>
                </mxCell>
                <mxCell id="7" value="[[scope]]:parent GO&lt;br&gt;函数执行体（代码块）" style="rounded=1;whiteSpace=wrap;html=1;" vertex="1" parent="1">
                    <mxGeometry x="1020" y="310" width="180" height="60" as="geometry"/>
                </mxCell>
                <mxCell id="8" value="函数存储空间foo 0xa00" style="text;html=1;align=center;verticalAlign=middle;resizable=0;points=[];autosize=1;strokeColor=none;" vertex="1" parent="1">
                    <mxGeometry x="1020" y="290" width="140" height="20" as="geometry"/>
                </mxCell>
                <mxCell id="9" value="执行代码，开始赋值" style="whiteSpace=wrap;html=1;" vertex="1" parent="1">
                    <mxGeometry x="490" y="390" width="200" height="50" as="geometry"/>
                </mxCell>
                <mxCell id="10" value="VO:GO" style="whiteSpace=wrap;html=1;" vertex="1" parent="1">
                    <mxGeometry x="490" y="340" width="200" height="50" as="geometry"/>
                </mxCell>
                <mxCell id="11" value="[[scope]]:parent&lt;br&gt;函数执行体（代码块）" style="rounded=1;whiteSpace=wrap;html=1;" vertex="1" parent="1">
                    <mxGeometry x="810" y="310" width="180" height="60" as="geometry"/>
                </mxCell>
                <mxCell id="12" value="函数存储空间bar 0xb00" style="text;html=1;align=center;verticalAlign=middle;resizable=0;points=[];autosize=1;strokeColor=none;" vertex="1" parent="1">
                    <mxGeometry x="810" y="290" width="140" height="20" as="geometry"/>
                </mxCell>
                <mxCell id="13" value="" style="whiteSpace=wrap;html=1;" vertex="1" parent="1">
                    <mxGeometry x="490" y="260" width="200" height="60" as="geometry"/>
                </mxCell>
                <mxCell id="14" value="FEC" style="text;html=1;align=center;verticalAlign=middle;resizable=0;points=[];autosize=1;strokeColor=none;" vertex="1" parent="1">
                    <mxGeometry x="490" y="240" width="40" height="20" as="geometry"/>
                </mxCell>
            </root>
        </mxGraphModel>
    </diagram>
</mxfile>